<svg width="16" height="16" viewBox="0 0 16 16" fill="none" xmlns="http://www.w3.org/2000/svg">
<g id="UI Icons">
<path id="Vector (Stroke)" d="M14 8.00002C14 4.68631 11.3137 2.00002 8.00002 2.00002C4.68631 2.00002 2.00002 4.68631 2.00002 8.00002C2.00002 11.3137 4.68631 14 8.00002 14C11.3137 14 14 11.3137 14 8.00002ZM15.3334 8.00002C15.3334 12.0501 12.0501 15.3334 8.00002 15.3334C3.94993 15.3334 0.666687 12.0501 0.666687 8.00002C0.666687 3.94993 3.94993 0.666687 8.00002 0.666687C12.0501 0.666687 15.3334 3.94993 15.3334 8.00002Z" fill="#1A1A1A"/>
<path id="Vector (Stroke)_2" d="M11.9427 6.16665L6.99998 11.1094L4.22394 8.33331L5.16665 7.3906L6.99998 9.22394L11 5.22394L11.9427 6.16665Z" fill="#1A1A1A"/>
</g>
</svg>
