<svg width="119" height="103" viewBox="0 0 119 103" fill="none" xmlns="http://www.w3.org/2000/svg">
<g id="Type=G Outline" clip-path="url(#clip0_18_4584)">
<path id="Vector" d="M87.81 1.63L112.16 40.6H86.43L62.09 1.63H87.81ZM56.33 1.63L28.16 50.43L27.69 51.24L28.16 52.05L56.33 100.85H30.52L1.88 51.24L30.52 1.63H56.33ZM88.71 0H59.15L85.53 42.22H115.1L88.71 0ZM59.15 0H29.58L0 51.24L29.58 102.48H59.14L29.56 51.24L59.15 0Z" fill="white"/>
<path id="Vector_2" d="M60.5601 101.67L81.8001 64.88H70.8501V52.06H116.89L88.2401 101.67H60.5601Z" fill="white"/>
<path id="Vector_3" d="M115.48 52.87L87.7699 100.85H61.9599L81.7899 66.5L83.1999 64.06H71.6499V52.87H115.47H115.48ZM118.3 51.24H70.0299V65.69H80.3899L59.1499 102.48H88.7199L118.31 51.24H118.3Z" fill="white"/>
</g>
<defs>
<clipPath id="clip0_18_4584">
<rect width="119" height="103" fill="white"/>
</clipPath>
</defs>
</svg>
