<svg width="24" height="24" viewBox="0 0 24 24" fill="none" xmlns="http://www.w3.org/2000/svg">
<g id="UI Icons">
<path id="Vector (Stroke)" fill-rule="evenodd" clip-rule="evenodd" d="M12 3C7.02944 3 3 7.02944 3 12C3 16.9706 7.02944 21 12 21C16.9706 21 21 16.9706 21 12C21 7.02944 16.9706 3 12 3ZM1 12C1 5.92487 5.92487 1 12 1C18.0751 1 23 5.92487 23 12C23 18.0751 18.0751 23 12 23C5.92487 23 1 18.0751 1 12Z" fill="#1A1A1A"/>
<path id="Vector (Stroke)_2" fill-rule="evenodd" clip-rule="evenodd" d="M8.50019 5.25173C9.20577 3.55162 10.1173 2.35686 10.9011 1.4043L12.3489 2.59566C11.6089 3.49495 10.8329 4.52241 10.232 5.97045C9.6314 7.41751 9.1875 9.33051 9.1875 12C9.1875 14.6695 9.6314 16.5825 10.232 18.0295C10.8329 19.4775 11.6089 20.505 12.3489 21.4043L10.9011 22.5957C10.1173 21.6431 9.20577 20.4483 8.50019 18.7482C7.7942 17.0472 7.3125 14.8861 7.3125 12C7.3125 9.11389 7.7942 6.95281 8.50019 5.25173Z" fill="#1A1A1A"/>
<path id="Vector (Stroke)_3" fill-rule="evenodd" clip-rule="evenodd" d="M13.7678 5.97045C13.1669 4.52241 12.3909 3.49495 11.6509 2.59566L13.0987 1.4043C13.8826 2.35686 14.794 3.55162 15.4996 5.25173C16.2056 6.95281 16.6873 9.11389 16.6873 12C16.6873 14.8861 16.2056 17.0472 15.4996 18.7482C14.794 20.4483 13.8826 21.6431 13.0987 22.5957L11.6509 21.4043C12.3909 20.505 13.1669 19.4775 13.7678 18.0295C14.3684 16.5825 14.8123 14.6695 14.8123 12C14.8123 9.33051 14.3684 7.41751 13.7678 5.97045Z" fill="#1A1A1A"/>
<path id="Vector (Stroke)_4" fill-rule="evenodd" clip-rule="evenodd" d="M21.25 9.6875H2.75V7.8125H21.25V9.6875Z" fill="#1A1A1A"/>
<path id="Vector (Stroke)_5" fill-rule="evenodd" clip-rule="evenodd" d="M21.25 16.1875H2.75V14.3125H21.25V16.1875Z" fill="#1A1A1A"/>
</g>
</svg>
