<svg width="191" height="28" viewBox="0 0 191 28" fill="none" xmlns="http://www.w3.org/2000/svg">
<g id="Logo - Horizontal + Tagline" clip-path="url(#clip0_559_4741)">
<path id="Vector" d="M8.3225 0H16.6397L8.31721 13.9693L16.6397 27.9437H8.3225L0 13.9693L8.3225 0Z" fill="#1A1A1A"/>
<path id="Vector_2" d="M24.9516 0L32.3758 11.5155H24.0586L16.6397 0H24.9516Z" fill="#0033AB"/>
<path id="Vector_3" d="M19.6992 13.9744H33.2741L24.9516 27.9436H16.6397L22.6108 17.9136H19.6992V13.9744Z" fill="#0033AB"/>
<path id="Vector_4" d="M187.708 1.75196C187.708 1.35752 187.867 0.983574 188.152 0.706955C188.442 0.425213 188.828 0.271536 189.235 0.271536C189.642 0.271536 190.033 0.425213 190.324 0.706955C190.609 0.988697 190.768 1.35752 190.768 1.75196C190.768 2.57157 190.081 3.23751 189.235 3.23751C188.828 3.23751 188.437 3.08383 188.152 2.80209C187.867 2.52035 187.708 2.15152 187.708 1.75708V1.75196ZM189.24 3.45778C189.711 3.45778 190.155 3.27849 190.487 2.95577C190.82 2.63304 191 2.20787 191 1.75196C191 1.29605 190.82 0.870877 190.487 0.548155C190.155 0.225433 189.711 0.0461426 189.24 0.0461426C188.273 0.0461426 187.481 0.809407 187.481 1.75196C187.481 2.20275 187.66 2.63304 187.993 2.95577C188.326 3.27849 188.77 3.45778 189.24 3.45778Z" fill="#1A1A1A"/>
<path id="Vector_5" d="M188.86 2.54599H188.638V0.9375H189.404C189.679 0.9375 189.948 1.02971 189.948 1.3678C189.948 1.60856 189.822 1.69564 189.716 1.75199C189.811 1.78785 189.906 1.82883 189.911 2.05422L189.927 2.34621C189.927 2.43329 189.943 2.46915 190.012 2.51013V2.54599H189.737C189.705 2.44866 189.7 2.20278 189.7 2.14131C189.7 2.00812 189.674 1.85444 189.404 1.85444H188.865V2.54599H188.86ZM188.86 1.67003H189.378C189.542 1.67003 189.716 1.62905 189.716 1.39341C189.716 1.15777 189.531 1.12704 189.42 1.12704H188.86V1.67515V1.67003Z" fill="#1A1A1A"/>
<path id="Vector_6" d="M122.549 18.6872H131.115L121.646 0.0358887H109.619L100.9 18.6821H108.874L110.428 15.3319H120.954L122.544 18.6821L122.549 18.6872ZM112.113 11.6897L115.627 4.11346L119.226 11.6897H112.113Z" fill="#1A1A1A"/>
<path id="Vector_7" d="M93.3863 11.4029C94.4379 11.4029 97.5661 10.1479 98.2055 9.36922C99.22 8.1398 99.22 5.35312 98.7127 3.54998C97.7299 0.0358884 89.3281 0.0358887 89.3281 0.0358887H73.703V18.6821H81.365V13.58H88.2766C89.0269 13.58 90.6809 13.872 90.6809 15.1833V18.6821H98.8026C98.8026 18.6821 98.866 14.6352 98.4961 13.7285C97.5344 11.3312 92.3348 11.3978 93.3863 11.3978V11.4029ZM89.2277 9.35898H81.365V4.40545H89.0798C89.0798 4.40545 90.9926 4.20567 90.9926 6.90526C90.9926 9.3641 89.2277 9.35898 89.2277 9.35898Z" fill="#1A1A1A"/>
<path id="Vector_8" d="M185.705 2.73538C182.477 -0.527698 173.446 0.0409076 173.446 0.0409076V0.0562753C172.019 -0.0103182 164.368 -0.189608 161.446 2.76612C159.501 4.72807 159.845 9.31789 159.845 9.31789C159.845 9.31789 159.528 14.297 162.128 16.3666C165.425 18.9842 173.71 18.7127 173.71 18.7127V18.6871C175.074 18.7076 182.07 18.6973 185.034 16.3358C187.639 14.2663 187.317 9.28716 187.317 9.28716C187.317 9.28716 187.655 4.70245 185.711 2.73538H185.705ZM178.688 13.2213C177.198 14.5019 173.446 14.2868 173.446 14.2868V14.3226C172.611 14.3483 169.726 14.338 168.463 13.2469C167.702 12.5912 167.951 9.14885 167.951 9.14885C167.951 9.14885 167.671 5.92163 168.542 5.13787C169.647 4.15434 173.7 4.31826 173.7 4.31826V4.2824C174.577 4.26703 177.658 4.26703 178.603 5.10714C179.486 5.89089 179.195 9.12324 179.195 9.12324C179.195 9.12324 179.449 12.5605 178.688 13.2213Z" fill="#1A1A1A"/>
<path id="Vector_9" d="M149.218 11.4951V12.0279C149.218 14.164 147.649 14.3074 144.394 14.3074C139.675 14.3074 139.48 13.2624 139.48 10.5474V7.71464C139.48 5.1175 139.913 4.27227 144.394 4.27227C147.057 4.27227 148.912 4.39521 149.181 6.01395V6.72086H157.271V6.01395C157.113 0.563527 153.345 0.0512695 145.255 0.0512695C136.616 0.0512695 131.395 0.922107 131.395 6.93601V11.6385C131.395 18.2825 137.239 18.5284 145.255 18.5284C148.674 18.5284 151.929 18.554 154.598 17.1914C157.271 15.8083 157.308 14.0154 157.308 12.0279V11.4951H149.218Z" fill="#1A1A1A"/>
<path id="Vector_10" d="M70.2208 5.8449C70.2208 0.076882 64.8045 0.0512695 57.1848 0.0512695C48.5453 0.0512695 43.203 0.94772 43.203 6.96163V11.6642C43.203 17.55 47.9165 18.5284 57.1848 18.5284C67.7055 18.5284 70.226 17.4117 70.226 11.2748L70.4585 8.32423H57.0686L56.8308 11.0494H62.247C62.247 13.5697 61.1902 14.5482 57.1848 14.5482C53.1794 14.5482 51.2983 14.2101 51.2983 10.9828V8.02712C51.3776 5.09188 51.5361 4.02639 57.1848 4.02639C59.5415 4.02639 62.0938 4.00078 62.247 5.8449H70.2208Z" fill="#1A1A1A"/>
<path id="Vector_11" d="M46.104 22.9236L47.4303 26.5555L48.7513 22.9236H50.1516V27.9335H49.0842V26.5657L49.1899 24.2042L47.7949 27.9335H47.0657L45.676 24.2042L45.7817 26.5657V27.9335H44.7195V22.9236H46.1093H46.104Z" fill="#1A1A1A"/>
<path id="Vector_12" d="M56.1967 25.5412C56.1967 26.0329 56.1068 26.4683 55.9272 26.8372C55.7475 27.206 55.4886 27.4929 55.1557 27.6978C54.8228 27.9027 54.4371 28 54.0038 28C53.5705 28 53.1953 27.9027 52.8571 27.7029C52.5189 27.5031 52.26 27.2162 52.0751 26.8474C51.8901 26.4786 51.795 26.0534 51.795 25.5719V25.326C51.795 24.8342 51.8848 24.3988 52.0698 24.0249C52.2547 23.6509 52.5136 23.3641 52.8465 23.1592C53.1794 22.9543 53.5652 22.8569 53.9932 22.8569C54.4212 22.8569 54.8069 22.9594 55.1398 23.1592C55.4727 23.3589 55.7317 23.6458 55.9166 24.0249C56.1016 24.3988 56.1914 24.8342 56.1914 25.3209V25.5463L56.1967 25.5412ZM55.1187 25.3158C55.1187 24.7933 55.0236 24.3937 54.8281 24.1171C54.6326 23.8405 54.3578 23.7073 53.9985 23.7073C53.6392 23.7073 53.3644 23.8405 53.1742 24.112C52.9786 24.3835 52.8835 24.7779 52.8782 25.2953V25.5412C52.8782 26.0534 52.9734 26.4479 53.1689 26.7296C53.3644 27.0113 53.6444 27.1548 54.0038 27.1548C54.3631 27.1548 54.6326 27.0165 54.8281 26.745C55.0236 26.4735 55.1187 26.079 55.1187 25.5565V25.3106V25.3158Z" fill="#1A1A1A"/>
<path id="Vector_13" d="M59.6684 26.6887L60.8361 22.9236H62.0198L60.2232 27.9335H59.1135L57.3222 22.9236H58.5058L59.6684 26.6887Z" fill="#1A1A1A"/>
<path id="Vector_14" d="M64.5139 27.9335H63.4518V22.9236H64.5139V27.9335Z" fill="#1A1A1A"/>
<path id="Vector_15" d="M70.5748 27.9335H69.5127L67.4413 24.6396V27.9335H66.3792V22.9236H67.4413L69.5179 26.2276V22.9236H70.5801V27.9335H70.5748Z" fill="#1A1A1A"/>
<path id="Vector_16" d="M76.4613 27.2982C76.2711 27.5185 75.9963 27.6926 75.6475 27.8156C75.2988 27.9385 74.9078 28 74.485 28C74.0359 28 73.6449 27.9078 73.3067 27.7183C72.9685 27.5287 72.7096 27.2521 72.5246 26.8935C72.3397 26.5349 72.2446 26.1098 72.2446 25.6231V25.2799C72.2446 24.7779 72.3344 24.3476 72.5035 23.9839C72.6779 23.6202 72.9262 23.3385 73.2538 23.1438C73.5815 22.9491 73.9672 22.8518 74.4058 22.8518C75.0187 22.8518 75.4996 22.9952 75.8431 23.277C76.1865 23.5587 76.3926 23.9736 76.456 24.5115H75.4203C75.3728 24.2247 75.2671 24.0146 75.1086 23.8814C74.95 23.7483 74.7228 23.6817 74.4375 23.6817C74.0782 23.6817 73.7981 23.8149 73.6132 24.0761C73.4282 24.3374 73.3278 24.7318 73.3278 25.2543V25.5719C73.3278 26.0944 73.4282 26.494 73.6343 26.7603C73.8404 27.0267 74.1416 27.165 74.5379 27.165C74.9342 27.165 75.2248 27.0831 75.3939 26.9191V26.0534H74.4269V25.2953H76.4613V27.2931V27.2982Z" fill="#1A1A1A"/>
<path id="Vector_17" d="M82.2686 22.9236L83.5949 26.5555L84.9159 22.9236H86.3109V27.9335H85.2435V26.5657L85.3492 24.2042L83.9542 27.9335H83.225L81.8353 24.2042L81.9409 26.5657V27.9335H80.8788V22.9236H82.2686Z" fill="#1A1A1A"/>
<path id="Vector_18" d="M91.0296 26.8987H89.1643L88.8103 27.9283H87.6795L89.6029 22.9185H90.5911L92.525 27.9283H91.3942L91.0349 26.8987H91.0296ZM89.4497 26.0637H90.739L90.0891 24.1889L89.4497 26.0637Z" fill="#1A1A1A"/>
<path id="Vector_19" d="M97.3389 23.7586H95.7537V27.9283H94.6915V23.7586H93.1327V22.9236H97.3389V23.7586Z" fill="#1A1A1A"/>
<path id="Vector_20" d="M101.925 25.7615H99.8805V27.1036H102.28V27.9335H98.8184V22.9236H102.274V23.7586H99.8805V24.9521H101.925V25.7615Z" fill="#1A1A1A"/>
<path id="Vector_21" d="M105.688 26.0996H104.842V27.9335H103.78V22.9236H105.698C106.311 22.9236 106.782 23.0568 107.109 23.318C107.442 23.5793 107.606 23.9532 107.606 24.4347C107.606 24.778 107.532 25.0597 107.379 25.2902C107.225 25.5207 106.993 25.7 106.686 25.8332L107.807 27.8822V27.9283H106.665L105.698 26.0945L105.688 26.0996ZM104.837 25.2646H105.693C105.963 25.2646 106.169 25.198 106.311 25.0648C106.459 24.9316 106.533 24.7523 106.533 24.5218C106.533 24.2913 106.465 24.1018 106.327 23.9635C106.19 23.8303 105.978 23.7586 105.688 23.7586H104.832V25.2595L104.837 25.2646Z" fill="#1A1A1A"/>
<path id="Vector_22" d="M110.417 27.9335H109.355V22.9236H110.417V27.9335Z" fill="#1A1A1A"/>
<path id="Vector_23" d="M115.189 26.8987H113.323L112.969 27.9283H111.839L113.762 22.9185H114.75L116.684 27.9283H115.553L115.194 26.8987H115.189ZM113.609 26.0637H114.898L114.248 24.1889L113.609 26.0637Z" fill="#1A1A1A"/>
<path id="Vector_24" d="M119.099 27.1036H121.361V27.9335H118.037V22.9236H119.099V27.1036Z" fill="#1A1A1A"/>
<path id="Vector_25" d="M125.519 26.6169C125.519 26.4222 125.45 26.2737 125.308 26.1661C125.165 26.0585 124.911 25.951 124.542 25.8383C124.172 25.7256 123.881 25.6078 123.664 25.4951C123.078 25.1877 122.782 24.7728 122.782 24.2554C122.782 23.9839 122.861 23.7431 123.02 23.5331C123.178 23.3231 123.4 23.154 123.696 23.0362C123.992 22.9184 124.32 22.8569 124.69 22.8569C125.059 22.8569 125.387 22.9235 125.678 23.0516C125.968 23.1797 126.19 23.3641 126.349 23.5997C126.507 23.8353 126.587 24.1017 126.587 24.404H125.524C125.524 24.1734 125.45 23.9941 125.302 23.8712C125.155 23.7431 124.943 23.6817 124.674 23.6817C124.404 23.6817 124.209 23.7329 124.066 23.8405C123.923 23.948 123.849 24.0864 123.849 24.2605C123.849 24.4244 123.934 24.5576 124.103 24.6703C124.272 24.7779 124.52 24.8855 124.848 24.9777C125.456 25.1518 125.894 25.3721 126.169 25.6334C126.444 25.8946 126.587 26.2225 126.587 26.6118C126.587 27.0472 126.417 27.3853 126.079 27.6312C125.741 27.8771 125.287 28 124.716 28C124.32 28 123.955 27.9283 123.633 27.79C123.305 27.6517 123.057 27.457 122.888 27.2111C122.713 26.9652 122.629 26.6835 122.629 26.3557H123.696C123.696 26.9089 124.034 27.1855 124.716 27.1855C124.97 27.1855 125.165 27.1343 125.308 27.037C125.45 26.9396 125.519 26.7962 125.519 26.6169Z" fill="#1A1A1A"/>
<path id="Vector_26" d="M134.534 23.7586H132.949V27.9283H131.886V23.7586H130.328V22.9236H134.534V23.7586Z" fill="#1A1A1A"/>
<path id="Vector_27" d="M140.22 27.9335H139.157V25.7871H137.081V27.9335H136.019V22.9236H137.081V24.9521H139.157V22.9236H140.22V27.9335Z" fill="#1A1A1A"/>
<path id="Vector_28" d="M145.002 26.8987H143.136L142.782 27.9283H141.652L143.575 22.9185H144.563L146.497 27.9283H145.366L145.007 26.8987H145.002ZM143.422 26.0637H144.711L144.061 24.1889L143.422 26.0637Z" fill="#1A1A1A"/>
<path id="Vector_29" d="M151.306 23.7586H149.72V27.9283H148.658V23.7586H147.099V22.9236H151.306V23.7586Z" fill="#1A1A1A"/>
<path id="Vector_30" d="M156.643 22.9236L157.969 26.5555L159.29 22.9236H160.685V27.9335H159.618V26.5657L159.723 24.2042L158.328 27.9335H157.599L156.209 24.2042L156.315 26.5657V27.9335H155.253V22.9236H156.643Z" fill="#1A1A1A"/>
<path id="Vector_31" d="M165.404 26.8987H163.538L163.184 27.9283H162.054L163.977 22.9185H164.965L166.899 27.9283H165.768L165.409 26.8987H165.404ZM163.829 26.0637H165.118L164.468 24.1889L163.829 26.0637Z" fill="#1A1A1A"/>
<path id="Vector_32" d="M171.713 23.7586H170.128V27.9283H169.066V23.7586H167.507V22.9236H171.713V23.7586Z" fill="#1A1A1A"/>
<path id="Vector_33" d="M177.134 23.7586H175.549V27.9283H174.487V23.7586H172.928V22.9236H177.134V23.7586Z" fill="#1A1A1A"/>
<path id="Vector_34" d="M181.721 25.7615H179.676V27.1036H182.075V27.9335H178.614V22.9236H182.07V23.7586H179.676V24.9521H181.721V25.7615Z" fill="#1A1A1A"/>
<path id="Vector_35" d="M185.483 26.0996H184.638V27.9335H183.576V22.9236H185.494C186.107 22.9236 186.577 23.0568 186.905 23.318C187.238 23.5793 187.402 23.9532 187.402 24.4347C187.402 24.778 187.328 25.0597 187.174 25.2902C187.021 25.5207 186.789 25.7 186.482 25.8332L187.602 27.8822V27.9283H186.461L185.494 26.0945L185.483 26.0996ZM184.638 25.2646H185.494C185.763 25.2646 185.97 25.198 186.112 25.0648C186.26 24.9316 186.334 24.7523 186.334 24.5218C186.334 24.2913 186.265 24.1018 186.128 23.9635C185.991 23.8303 185.779 23.7586 185.489 23.7586H184.633V25.2595L184.638 25.2646Z" fill="#1A1A1A"/>
</g>
<defs>
<clipPath id="clip0_559_4741">
<rect width="191" height="28" fill="white"/>
</clipPath>
</defs>
</svg>
