<svg width="24" height="25" viewBox="0 0 24 25" fill="none" xmlns="http://www.w3.org/2000/svg">
<path d="M16.0786 8.93408C19.9005 8.93408 20.6049 11.4465 20.605 14.7163V21.3735H16.8335V15.4692C16.8335 14.0623 16.8094 12.2515 14.8726 12.2515C12.9089 12.2516 12.6108 13.7857 12.6108 15.3696V21.3726H8.84229V9.23389H12.4595V10.894H12.5112C13.0142 9.94109 14.2438 8.93419 16.0786 8.93408ZM6.4751 21.3726H2.69971V9.23389H6.4751V21.3726ZM4.58838 3.19971C5.79656 3.19996 6.77588 4.17994 6.77588 5.38818C6.77562 6.5962 5.7964 7.57543 4.58838 7.57568C3.38014 7.57568 2.40016 6.59636 2.3999 5.38818C2.3999 4.17978 3.37998 3.19971 4.58838 3.19971Z" fill="white"/>
</svg>
