<svg width="16" height="16" viewBox="0 0 16 16" fill="none" xmlns="http://www.w3.org/2000/svg">
<g id="UI Icons">
<path id="Vector (Stroke)" fill-rule="evenodd" clip-rule="evenodd" d="M11.2761 5.66669L5.66666 11.2762L4.72385 10.3334L10.3333 4.72388L11.2761 5.66669Z" fill="#BD2024"/>
<path id="Vector (Stroke)_2" fill-rule="evenodd" clip-rule="evenodd" d="M5.66666 4.72388L11.2761 10.3334L10.3333 11.2762L4.72385 5.66669L5.66666 4.72388Z" fill="#BD2024"/>
<path id="Vector (Stroke)_3" fill-rule="evenodd" clip-rule="evenodd" d="M7.99999 1.99996C4.68628 1.99996 1.99999 4.68625 1.99999 7.99996C1.99999 11.3137 4.68628 14 7.99999 14C11.3137 14 14 11.3137 14 7.99996C14 4.68625 11.3137 1.99996 7.99999 1.99996ZM0.666656 7.99996C0.666656 3.94987 3.9499 0.666626 7.99999 0.666626C12.0501 0.666626 15.3333 3.94987 15.3333 7.99996C15.3333 12.05 12.0501 15.3333 7.99999 15.3333C3.9499 15.3333 0.666656 12.05 0.666656 7.99996Z" fill="#BD2024"/>
</g>
</svg>
