<svg width="24" height="25" viewBox="0 0 24 25" fill="none" xmlns="http://www.w3.org/2000/svg">
<path d="M22.3849 7.86362C22.2688 7.42932 22.0419 7.03325 21.7268 6.71483C21.4117 6.39642 21.0194 6.16676 20.5889 6.04872C18.9927 5.60681 12.607 5.59962 12.607 5.59962C12.607 5.59962 6.2222 5.59242 4.62499 6.0148C4.19478 6.13828 3.80327 6.37118 3.48805 6.69116C3.17283 7.01114 2.94449 7.40745 2.82494 7.84204C2.40398 9.4514 2.3999 12.7893 2.3999 12.7893C2.3999 12.7893 2.39583 16.1437 2.81373 17.7366C3.04817 18.6174 3.73618 19.3131 4.61072 19.5505C6.22322 19.9924 12.5917 19.9996 12.5917 19.9996C12.5917 19.9996 18.9775 20.0068 20.5736 19.5854C21.0043 19.4676 21.397 19.2385 21.7128 18.9207C22.0287 18.6029 22.2569 18.2076 22.3747 17.7736C22.7967 16.1653 22.7998 12.8284 22.7998 12.8284C22.7998 12.8284 22.8201 9.47298 22.3849 7.86362ZM10.5643 15.8816L10.5694 9.71551L15.8768 12.8037L10.5643 15.8816Z" fill="white"/>
</svg>
